<?xml version="1.0" encoding="UTF-8"?>
<svg id="Layer_2" data-name="Layer 2" xmlns="http://www.w3.org/2000/svg" viewBox="0 0 234.4 27.88">
  <defs>
    <style>
      .cls-1 {
        letter-spacing: .01em;
      }

      .cls-2 {
        letter-spacing: 0em;
      }

      .cls-3 {
        fill: none;
        stroke: hsl(258, 97%, 75%);
        stroke-miterlimit: 10;
      }

      .cls-4 {
        letter-spacing: 0em;
      }

      .cls-5 {
        letter-spacing: 0em;
      }

      .cls-6 {
        letter-spacing: 0em;
      }

      .cls-7 {
        letter-spacing: -.04em;
      }

      .cls-8 {
        letter-spacing: .02em;
      }

      .cls-9 {
        font-size: 12px;
      }

      .cls-9, .cls-10 {
        font-family: system-ui;
        fill: hsl(258, 97%, 75%);
      }

      .cls-11 {
        letter-spacing: 0em;
      }

      .cls-12 {
        letter-spacing: 0em;
      }

      .cls-13 {
        letter-spacing: 0em;
      }

      .cls-14 {
        letter-spacing: 0em;
      }

      .cls-15 {
        letter-spacing: 0em;
      }

      .cls-10 {
        font-size: 10px;
      }

      .cls-16 {
        letter-spacing: -.01em;
      }

      .cls-17 {
        letter-spacing: 0em;
      }

      .cls-18 {
        letter-spacing: -.01em;
      }

      .cls-19 {
        letter-spacing: -.02em;
      }
    </style>
  </defs>
  <g id="Layer_1-2" data-name="Layer 1">
    <text class="cls-9" transform="translate(0 24.88)"><tspan class="cls-11" x="0" y="0">h</tspan><tspan class="cls-13" x="6.61" y="0">ttps://</tspan><tspan class="cls-1" x="36.85" y="0">ww</tspan><tspan class="cls-7" x="54.8" y="0">w</tspan><tspan x="63.17" y="0">.</tspan><tspan class="cls-14" x="65.65" y="0">e</tspan><tspan class="cls-19" x="71.63" y="0">x</tspan><tspan class="cls-13" x="77" y="0">empe</tspan><tspan class="cls-18" x="105.86" y="0">l</tspan><tspan x="108.57" y="0">.</tspan><tspan class="cls-15" x="111.06" y="0">c</tspan><tspan class="cls-13" x="116.36" y="0">om/page?</tspan><tspan class="cls-16" x="167.28" y="0">n</tspan><tspan class="cls-6" x="173.78" y="0">y</tspan><tspan x="179.31" y="0">ckel=</tspan><tspan class="cls-12" x="206.31" y="0">v</tspan><tspan class="cls-13" x="212.04" y="0">ä</tspan><tspan class="cls-6" x="217.82" y="0">r</tspan><tspan class="cls-17" x="221.62" y="0">de</tspan></text>
    <polyline class="cls-3" points="101.44 6.08 133.24 6.08 133.24 13.08"/>
    <polyline class="cls-3" points="36.24 13.08 36.24 6.08 66.31 6.08"/>
    <polyline class="cls-3" points="210.7 6.08 231.34 6.08 231.34 13.08"/>
    <polyline class="cls-3" points="163.74 13.08 163.74 6.08 181.84 6.08"/>
    <polyline class="cls-3" points="157.68 6.08 161.64 6.08 161.64 13.08"/>
    <polyline class="cls-3" points="135.04 13.08 135.04 6.08 138.37 6.08"/>
    <text class="cls-10" transform="translate(68.13 8.75)"><tspan class="cls-5" x="0" y="0">D</tspan><tspan class="cls-2" x="6.7" y="0">omän</tspan></text>
    <text class="cls-10" transform="translate(139.19 8.37)"><tspan x="0" y="0">Sida</tspan></text>
    <text class="cls-10" transform="translate(183.88 8.62)"><tspan class="cls-4" x="0" y="0">Q</tspan><tspan x="6.92" y="0">ue</tspan><tspan class="cls-8" x="17.44" y="0">r</tspan><tspan x="20.96" y="0">y</tspan></text>
  </g>
</svg>